<?xml version="1.0" encoding="utf-8"?>
<!-- Generator: Adobe Illustrator 26.0.1, SVG Export Plug-In . SVG Version: 6.00 Build 0)  -->
<svg version="1.1" id="Layer_1" xmlns="http://www.w3.org/2000/svg" xmlns:xlink="http://www.w3.org/1999/xlink" x="0px" y="0px"
	 viewBox="0 0 173.1 64.1" style="enable-background:new 0 0 173.1 64.1;" xml:space="preserve">
<style type="text/css">
	.st0{fill:#F0612B;}
	.st1{fill:#424243;}
	.st2{fill:#3BB34A;}
</style>
<g>
	<g>
		<g>
			<path class="st0" d="M88.4,63.9l-2.6-11h2.3l1.7,7.6l2-7.6h2.6l1.9,7.7l1.7-7.7h2.2l-2.7,11h-2.3L93,55.7l-2.2,8.2H88.4
				L88.4,63.9z"/>
			<path class="st0" d="M102.4,63.9v-11h2.2v11H102.4z"/>
			<path class="st0" d="M107.8,63.9v-11h4.7c1.2,0,2.1,0.1,2.6,0.3c0.5,0.2,1,0.6,1.3,1.1c0.3,0.5,0.5,1.1,0.5,1.7
				c0,0.8-0.2,1.5-0.7,2.1c-0.5,0.5-1.2,0.9-2.2,1c0.5,0.3,0.9,0.6,1.2,0.9c0.3,0.3,0.7,0.9,1.3,1.8l1.4,2.2h-2.7l-1.6-2.4
				c-0.6-0.9-1-1.4-1.1-1.6c-0.2-0.2-0.5-0.4-0.7-0.5c-0.2-0.1-0.6-0.1-1.1-0.1h-0.5V64L107.8,63.9L107.8,63.9z M110.1,57.5h1.7
				c1.1,0,1.7-0.1,2-0.1s0.5-0.2,0.6-0.5c0.2-0.2,0.2-0.5,0.2-0.8c0-0.3-0.1-0.7-0.3-0.9c-0.2-0.2-0.5-0.3-0.9-0.5
				c-0.2,0-0.7-0.1-1.6-0.1h-1.7L110.1,57.5L110.1,57.5z"/>
			<path class="st0" d="M120,63.9v-11h8.2v1.9h-6v2.5h5.5v1.9h-5.5v3h6.2V64H120V63.9z"/>
			<path class="st0" d="M131.5,63.9v-11h2.2V62h5.5v1.9L131.5,63.9z"/>
			<path class="st0" d="M141.9,63.9v-11h8.2v1.9h-6v2.5h5.5v1.9h-5.5v3h6.2V64h-8.4V63.9z"/>
			<path class="st0" d="M152.8,60.3l2.2-0.2c0.1,0.7,0.4,1.3,0.8,1.6c0.4,0.3,0.9,0.5,1.6,0.5c0.7,0,1.3-0.2,1.6-0.5
				c0.3-0.3,0.6-0.6,0.6-1.1c0-0.3-0.1-0.5-0.2-0.7c-0.2-0.2-0.4-0.3-0.8-0.5c-0.3-0.1-0.9-0.2-1.8-0.5c-1.2-0.3-2.1-0.6-2.5-1.1
				c-0.7-0.6-1-1.4-1-2.2c0-0.6,0.2-1.1,0.5-1.6s0.8-0.9,1.4-1.1c0.6-0.2,1.3-0.4,2.2-0.4c1.4,0,2.5,0.3,3.1,0.9s1.1,1.4,1.1,2.5
				l-2.2,0.1c-0.1-0.6-0.3-1-0.6-1.2s-0.8-0.3-1.4-0.3s-1.1,0.1-1.5,0.4c-0.2,0.2-0.3,0.4-0.3,0.7c0,0.3,0.1,0.5,0.3,0.7
				c0.3,0.2,1,0.5,2.1,0.7c1.1,0.2,1.9,0.5,2.4,0.8s0.9,0.6,1.2,1.1s0.5,1.1,0.5,1.8c0,0.6-0.2,1.2-0.5,1.8s-0.9,1-1.5,1.2
				c-0.6,0.3-1.4,0.4-2.4,0.4c-1.4,0-2.5-0.3-3.2-1C153.3,62.5,152.9,61.6,152.8,60.3z"/>
			<path class="st0" d="M164.1,60.3l2.2-0.2c0.1,0.7,0.4,1.3,0.8,1.6c0.4,0.3,0.9,0.5,1.6,0.5c0.7,0,1.3-0.2,1.6-0.5
				c0.3-0.3,0.6-0.6,0.6-1.1c0-0.3-0.1-0.5-0.2-0.7c-0.2-0.2-0.4-0.3-0.8-0.5c-0.3-0.1-0.9-0.2-1.8-0.5c-1.2-0.3-2-0.6-2.5-1.1
				c-0.7-0.6-1-1.4-1-2.2c0-0.6,0.2-1.1,0.5-1.6s0.8-0.9,1.4-1.1c0.6-0.2,1.3-0.4,2.2-0.4c1.4,0,2.5,0.3,3.1,0.9s1.1,1.4,1.1,2.5
				l-2.2,0.1c-0.1-0.6-0.3-1-0.6-1.2c-0.3-0.2-0.8-0.3-1.4-0.3s-1.1,0.1-1.5,0.4c-0.2,0.2-0.3,0.4-0.3,0.7c0,0.3,0.1,0.5,0.3,0.7
				c0.3,0.2,1,0.5,2.1,0.7s1.9,0.5,2.4,0.8s0.9,0.6,1.2,1.1s0.5,1.1,0.5,1.8c0,0.6-0.2,1.2-0.5,1.8s-0.9,1-1.5,1.2
				c-0.6,0.3-1.4,0.4-2.4,0.4c-1.4,0-2.5-0.3-3.2-1C164.7,62.5,164.3,61.6,164.1,60.3z"/>
		</g>
		<g>
			<path class="st1" d="M77.2,27.9V43c0,1-1,1.8-2.4,1.8c-1.3,0-2.2-0.7-2.2-1.8v-2.3c-2.1,2.3-4.9,4.6-8.9,4.6c-4.4,0-8-2.5-8-7.8
				c0-6.5,5.6-8.2,13.8-8.2h2.8V28c0-3.5-1.8-7.3-6.5-7.3c-4.1,0-5.4,1.7-6.4,1.7c-1.2,0-1.8-1.4-1.8-2.5c0-1.8,4.5-3.4,8.4-3.4
				C74.3,16.5,77.2,22,77.2,27.9z M72.4,32.3h-2.1c-5,0-9.6,0.5-9.6,4.6c0,3.1,1.9,4.4,4.5,4.4c3.4,0,7.2-3.3,7.2-6L72.4,32.3
				C72.4,32.2,72.4,32.2,72.4,32.3z"/>
			<path class="st1" d="M93.3,20.9c-3.8,0-7.5,3.3-7.5,8.6V43c0,0.9-1.1,1.8-2.5,1.8c-1.4,0-2.4-0.9-2.4-1.8V18.6c0-1,1-1.7,2.4-1.7
				c1.3,0,2.2,0.7,2.2,1.7v2.7c1.3-2.4,4.1-4.8,7.7-4.8h2c1,0,1.9,1,1.9,2.2s-0.9,2.2-1.9,2.2H93.3L93.3,20.9z"/>
			<path class="st1" d="M120.1,27.9V43c0,1-1,1.8-2.4,1.8c-1.3,0-2.2-0.7-2.2-1.8v-2.3c-2.1,2.3-4.9,4.6-8.9,4.6c-4.4,0-8-2.5-8-7.8
				c0-6.5,5.6-8.2,13.8-8.2h2.8V28c0-3.5-1.8-7.3-6.5-7.3c-4.1,0-5.4,1.7-6.4,1.7c-1.2,0-1.8-1.4-1.8-2.5c0-1.8,4.5-3.4,8.4-3.4
				C117.1,16.5,120.1,22,120.1,27.9z M115.2,32.3h-2.1c-5,0-9.6,0.5-9.6,4.6c0,3.1,1.9,4.4,4.5,4.4c3.4,0,7.2-3.3,7.2-6L115.2,32.3
				C115.2,32.2,115.2,32.2,115.2,32.3z"/>
			<path class="st1" d="M128.3,1.7V43c0,0.9-1.1,1.8-2.5,1.8c-1.4,0-2.4-0.9-2.4-1.8V1.7c0-1,1-1.7,2.4-1.7
				C127.2,0,128.3,0.7,128.3,1.7z"/>
			<path class="st1" d="M137.4,1.7V43c0,0.9-1.1,1.8-2.5,1.8c-1.4,0-2.4-0.9-2.4-1.8V1.7c0-1,1-1.7,2.4-1.7
				C136.3,0,137.4,0.7,137.4,1.7z"/>
			<path class="st1" d="M164.1,27.3c0,4.7-2.6,4.9-5.3,4.9H146V34c0,4.3,3.5,7.2,8.4,7.2c4.4,0,5.7-2.3,7.2-2.3c1.2,0,2,1.4,2,2.2
				c0,1.5-3.6,4.2-9.3,4.2c-7.7,0-13.1-4.6-13.1-11.4v-6.2c0-6,5.3-11.2,11.7-11.2C158.9,16.5,164.1,21.1,164.1,27.3z M156.9,29
				c2.1,0,2.6-0.3,2.6-1.9c0-3.5-2.8-6.6-6.7-6.6c-3.7,0-6.8,2.8-6.8,6.4V29H156.9z"/>
			<path class="st1" d="M173.1,1.7V43c0,0.9-1.1,1.8-2.5,1.8c-1.4,0-2.4-0.9-2.4-1.8V1.7c0-1,1-1.7,2.4-1.7
				C172,0,173.1,0.7,173.1,1.7z"/>
		</g>
		<path class="st1" d="M42.6,1.7h-8.2v26h8c7.2,0,12.8-3.5,12.8-12.8v-0.5C55.2,5.1,49.6,1.7,42.6,1.7z M50.2,15.3
			c0,5.7-2.9,8.4-7.8,8.4h-8V6.2h8c4.8,0,7.8,2.6,7.8,8.4V15.3z"/>
		<g>
			<path class="st2" d="M29.5,44.8L29.5,44.8V6.6c0-2.7,2.2-5,5-5l0,0v38.1C34.4,42.6,32.2,44.8,29.5,44.8z"/>
			<path class="st2" d="M19.7,44.8L19.7,44.8V13.4c0-2.7,2.2-5,5-5l0,0v31.4C24.6,42.6,22.4,44.8,19.7,44.8z"/>
			<path class="st2" d="M9.8,44.8L9.8,44.8V20.3c0-2.7,2.2-5,5-5l0,0v24.5C14.8,42.6,12.6,44.8,9.8,44.8z"/>
			<path class="st2" d="M0,44.8L0,44.8V27c0-2.7,2.2-5,4.9-5l0,0v17.8C4.9,42.6,2.7,44.8,0,44.8z"/>
		</g>
	</g>
</g>
</svg>
